<svg width="800" height="500" viewBox="0 0 800 500" xmlns="http://www.w3.org/2000/svg" role="img" aria-label="Sea turtle adaptation infographic illustration">
  <defs>
    <linearGradient id="bg" x1="0" y1="0" x2="1" y2="1">
      <stop offset="0%" stop-color="#e5f6fb" />
      <stop offset="100%" stop-color="#c7e8f7" />
    </linearGradient>
  </defs>
  <rect width="800" height="500" fill="url(#bg)" />
  <rect x="90" y="110" width="600" height="260" rx="32" fill="#ffffff" stroke="#a2cce1" stroke-width="4" />
  <path d="M 180 180 L 240 130 L 330 210 L 400 160 L 470 220 L 540 170" fill="none" stroke="#2d7a9b" stroke-width="16" stroke-linecap="round" />
  <circle cx="180" cy="180" r="24" fill="#2d7a9b" />
  <circle cx="240" cy="130" r="24" fill="#2d7a9b" />
  <circle cx="330" cy="210" r="24" fill="#2d7a9b" />
  <circle cx="400" cy="160" r="24" fill="#2d7a9b" />
  <circle cx="470" cy="220" r="24" fill="#2d7a9b" />
  <circle cx="540" cy="170" r="24" fill="#2d7a9b" />
  <g transform="translate(160 330)">
    <path d="M 0 0 C 20 -40 60 -40 80 0" stroke="#4a683f" stroke-width="14" fill="none" />
    <path d="M 90 0 C 110 -40 150 -40 170 0" stroke="#4a683f" stroke-width="14" fill="none" />
  </g>
  <path d="M 180 105 C 170 90 190 65 220 75" stroke="#306d8f" stroke-width="12" fill="none" stroke-linecap="round" />
  <path d="M 475 120 C 495 100 520 105 540 130" stroke="#306d8f" stroke-width="12" fill="none" stroke-linecap="round" />
  <path d="M 290 250 C 290 230 320 220 340 245" stroke="#306d8f" stroke-width="12" fill="none" stroke-linecap="round" />
  <text x="116" y="90" font-family="Inter, sans-serif" font-size="40" fill="#1f4f6c">Adaptations</text>
  <text x="270" y="450" font-family="Inter, sans-serif" font-size="25" fill="#224d6a">Stronger swim fins, shell protection, and salt balance</text>
</svg>
